<mxfile host="app.diagrams.net" modified="2023-04-24T11:37:07.601Z" agent="Mozilla/5.0 (X11; Ubuntu; Linux x86_64; rv:109.0) Gecko/20100101 Firefox/112.0" etag="01TGENdLe7yvtCBz8QZD" version="21.2.1">
  <diagram name="Página-1" id="H3tdADxujXPjIybawjtp">
    <mxGraphModel dx="954" dy="556" grid="1" gridSize="10" guides="1" tooltips="1" connect="1" arrows="1" fold="1" page="1" pageScale="1" pageWidth="827" pageHeight="1169" background="none" math="0" shadow="0">
      <root>
        <mxCell id="0" />
        <mxCell id="1" parent="0" />
        <mxCell id="qZgqN66MqT9AEQnQDzIE-13" style="edgeStyle=orthogonalEdgeStyle;rounded=0;orthogonalLoop=1;jettySize=auto;html=1;" edge="1" parent="1" source="qZgqN66MqT9AEQnQDzIE-2" target="qZgqN66MqT9AEQnQDzIE-4">
          <mxGeometry relative="1" as="geometry">
            <Array as="points">
              <mxPoint x="190" y="50" />
            </Array>
          </mxGeometry>
        </mxCell>
        <mxCell id="qZgqN66MqT9AEQnQDzIE-2" value="&lt;div&gt;Entrevista com &lt;br&gt;&lt;/div&gt;&lt;div&gt;cliente&lt;/div&gt;" style="rounded=1;whiteSpace=wrap;html=1;fillColor=#e1d5e7;strokeColor=#9673a6;" vertex="1" parent="1">
          <mxGeometry x="10" y="20" width="120" height="60" as="geometry" />
        </mxCell>
        <mxCell id="qZgqN66MqT9AEQnQDzIE-4" value="&lt;div&gt;Levantamento de&lt;/div&gt;&lt;div&gt;Requisitos&lt;br&gt;&lt;/div&gt;" style="rounded=1;whiteSpace=wrap;html=1;fillColor=#f8cecc;strokeColor=#b85450;" vertex="1" parent="1">
          <mxGeometry x="130" y="90" width="120" height="60" as="geometry" />
        </mxCell>
        <mxCell id="qZgqN66MqT9AEQnQDzIE-8" value="&lt;div&gt;Elaboração do &lt;br&gt;&lt;/div&gt;&lt;div&gt;projeto&lt;br&gt;&lt;/div&gt;" style="rounded=1;whiteSpace=wrap;html=1;fillColor=#fff2cc;strokeColor=#d6b656;" vertex="1" parent="1">
          <mxGeometry x="250" y="160" width="120" height="60" as="geometry" />
        </mxCell>
        <mxCell id="qZgqN66MqT9AEQnQDzIE-9" value="Codificação e testes" style="rounded=1;whiteSpace=wrap;html=1;fillColor=#ffe6cc;strokeColor=#d79b00;shadow=0;" vertex="1" parent="1">
          <mxGeometry x="370" y="230" width="120" height="60" as="geometry" />
        </mxCell>
        <mxCell id="qZgqN66MqT9AEQnQDzIE-10" value="Implementação" style="rounded=1;whiteSpace=wrap;html=1;fillColor=#d5e8d4;strokeColor=#82b366;" vertex="1" parent="1">
          <mxGeometry x="490" y="300" width="120" height="60" as="geometry" />
        </mxCell>
        <mxCell id="qZgqN66MqT9AEQnQDzIE-41" style="edgeStyle=orthogonalEdgeStyle;rounded=0;orthogonalLoop=1;jettySize=auto;html=1;entryX=0.5;entryY=1;entryDx=0;entryDy=0;" edge="1" parent="1" source="qZgqN66MqT9AEQnQDzIE-11" target="qZgqN66MqT9AEQnQDzIE-2">
          <mxGeometry relative="1" as="geometry">
            <Array as="points">
              <mxPoint x="70" y="410" />
            </Array>
          </mxGeometry>
        </mxCell>
        <mxCell id="qZgqN66MqT9AEQnQDzIE-11" value="Manutenção" style="rounded=1;whiteSpace=wrap;html=1;fillColor=#dae8fc;strokeColor=#6c8ebf;" vertex="1" parent="1">
          <mxGeometry x="610" y="370" width="120" height="60" as="geometry" />
        </mxCell>
        <mxCell id="qZgqN66MqT9AEQnQDzIE-31" value="" style="endArrow=classic;html=1;rounded=0;entryX=0.5;entryY=1;entryDx=0;entryDy=0;" edge="1" parent="1" target="qZgqN66MqT9AEQnQDzIE-10">
          <mxGeometry width="50" height="50" relative="1" as="geometry">
            <mxPoint x="550" y="410" as="sourcePoint" />
            <mxPoint x="210" y="320" as="targetPoint" />
          </mxGeometry>
        </mxCell>
        <mxCell id="qZgqN66MqT9AEQnQDzIE-32" value="" style="endArrow=classic;html=1;rounded=0;entryX=0.5;entryY=1;entryDx=0;entryDy=0;" edge="1" parent="1" target="qZgqN66MqT9AEQnQDzIE-9">
          <mxGeometry width="50" height="50" relative="1" as="geometry">
            <mxPoint x="430" y="410" as="sourcePoint" />
            <mxPoint x="560" y="370" as="targetPoint" />
          </mxGeometry>
        </mxCell>
        <mxCell id="qZgqN66MqT9AEQnQDzIE-33" value="" style="endArrow=classic;html=1;rounded=0;entryX=0.5;entryY=1;entryDx=0;entryDy=0;" edge="1" parent="1" target="qZgqN66MqT9AEQnQDzIE-8">
          <mxGeometry width="50" height="50" relative="1" as="geometry">
            <mxPoint x="310" y="410" as="sourcePoint" />
            <mxPoint x="410" y="300" as="targetPoint" />
          </mxGeometry>
        </mxCell>
        <mxCell id="qZgqN66MqT9AEQnQDzIE-34" style="edgeStyle=orthogonalEdgeStyle;rounded=0;orthogonalLoop=1;jettySize=auto;html=1;" edge="1" parent="1">
          <mxGeometry relative="1" as="geometry">
            <mxPoint x="250" y="120" as="sourcePoint" />
            <mxPoint x="310" y="160" as="targetPoint" />
            <Array as="points">
              <mxPoint x="310" y="120" />
            </Array>
          </mxGeometry>
        </mxCell>
        <mxCell id="qZgqN66MqT9AEQnQDzIE-35" style="edgeStyle=orthogonalEdgeStyle;rounded=0;orthogonalLoop=1;jettySize=auto;html=1;" edge="1" parent="1">
          <mxGeometry relative="1" as="geometry">
            <mxPoint x="370" y="190" as="sourcePoint" />
            <mxPoint x="430" y="230" as="targetPoint" />
            <Array as="points">
              <mxPoint x="430" y="190" />
            </Array>
          </mxGeometry>
        </mxCell>
        <mxCell id="qZgqN66MqT9AEQnQDzIE-37" value="" style="endArrow=classic;html=1;rounded=0;entryX=0.5;entryY=1;entryDx=0;entryDy=0;" edge="1" parent="1" target="qZgqN66MqT9AEQnQDzIE-4">
          <mxGeometry width="50" height="50" relative="1" as="geometry">
            <mxPoint x="190" y="410" as="sourcePoint" />
            <mxPoint x="320" y="230" as="targetPoint" />
          </mxGeometry>
        </mxCell>
        <mxCell id="qZgqN66MqT9AEQnQDzIE-39" style="edgeStyle=orthogonalEdgeStyle;rounded=0;orthogonalLoop=1;jettySize=auto;html=1;" edge="1" parent="1">
          <mxGeometry relative="1" as="geometry">
            <mxPoint x="490" y="260" as="sourcePoint" />
            <mxPoint x="550" y="300" as="targetPoint" />
            <Array as="points">
              <mxPoint x="550" y="260" />
            </Array>
          </mxGeometry>
        </mxCell>
        <mxCell id="qZgqN66MqT9AEQnQDzIE-40" style="edgeStyle=orthogonalEdgeStyle;rounded=0;orthogonalLoop=1;jettySize=auto;html=1;" edge="1" parent="1">
          <mxGeometry relative="1" as="geometry">
            <mxPoint x="610" y="330" as="sourcePoint" />
            <mxPoint x="670" y="370" as="targetPoint" />
            <Array as="points">
              <mxPoint x="670" y="330" />
            </Array>
          </mxGeometry>
        </mxCell>
      </root>
    </mxGraphModel>
  </diagram>
</mxfile>
